#!OML:ASF E:/inclinewalkrobotboard/Project1/Captureday1/Session1/subject1.ASF
:FULLY-SPECIFIED
:DEGREES
338
root 0 0 0 -1.3012673213071877 0.13160905263102185 2.6837029817816203
lowerback 10.613638692277442 -1.326545920537062 -4.560330816593804
upperback 0.5980604177415786 -2.198467254847868 1.4581278565530018
thorax -5.162384972954099 -0.9697348643702541 4.37955312629368
lowerneck -17.501258158266314 -2.526185626684889 -2.240149273947413
upperneck 19.492170145715022 -2.8750958672132803 -0.1840665911372823
head 9.032437342834926 -1.5146651687410262 -0.07412562541500922
rclavicle -3.2146393093932418E-16 6.004276693283495E-16
rhumerus -35.06123543175743 -23.152481392027344 -77.85058640832662
rradius 19.91507885887578
rwrist 6.217422034520175
rhand -18.143973554151337 25.065614378543607
rfingers 7.125020000000026
rthumb 8.128496827645439 -4.775435518527296
lclavicle -7.379440641208488E-16 -1.1536180597263405E-16
lhumerus -26.480456086395343 -3.3235383766727233 80.3995328484628
lradius 31.806604226051135
lwrist 7.4690302443920125
lhand -27.83343961381732 26.019421610856703
lfingers 7.125019999999996
lthumb -1.2488452798761047 56.02879008204306
rfemur -34.39904690634965 5.42235101687257 20.162174655065524
rtibia 25.338650981885987
rfoot -10.009846317600662 -12.856077435496033
rtoes -2.391869379421248
lfemur 9.490961730060413 -3.0866989396255025 -28.65304685112014
ltibia 19.62822968494483
lfoot -16.089673598078118 -1.550550322158609
ltoes -3.286062556230295
339
root 0 0 0 -1.3614182433598387 0.47016152377944254 2.1329692270946503
lowerback 10.515875676883647 -1.4366941836277678 -4.135835259917127
upperback 0.48802190064046247 -2.2793205788702027 1.6507215027862299
thorax -5.215192087015755 -1.0199156677217367 4.355372263045119
lowerneck -17.84937834011714 -2.510137855710202 -2.2369324918507836
upperneck 19.68693027808868 -2.8778689419833965 -0.21720662353551834
head 9.166630680353153 -1.5059894519367854 -0.09220634623779556
rclavicle -9.963423474924965E-16 6.305396339652823E-16
rhumerus -35.40727301711923 -23.73776866079899 -77.57656553999763
rradius 19.285811024359298
rwrist 6.68861530939166
rhand -18.064573798246414 25.10729351770854
rfingers 7.125020000000025
rthumb 8.204757923402767 -4.721046087386959
lclavicle -1.6743278809327489E-15 -6.422365063377085E-17
lhumerus -26.627018657367167 -3.3544454298576736 80.52624557131173
lradius 31.780900287177342
lwrist 7.498166060119699
lhand -27.840144099880014 25.94472724068197
lfingers 7.125019999999996
lthumb -1.2557019202951558 55.95265557595836
rfemur -32.67098744223425 5.860358022369476 20.527022744856374
rtibia 23.42567772774516
rfoot -9.605729013290809 -12.032761552298629
rtoes -2.3385529555379954
lfemur 12.103339297159309 -3.4419594459242453 -28.27311071669496
ltibia 19.941302116348233
lfoot -13.392682790374575 -3.78894448196878
ltoes -5.178897018317937
340
root 0 0 0 -1.502948839989396 0.8256257269222047 0.7147529774308361
lowerback 10.061981615158052 -1.590564520230492 -3.022577014124651
upperback 0.20711707927774708 -2.3306607049556485 2.0518912268211884
thorax -5.257805406206714 -1.0682228246747594 4.16537136728418
lowerneck -18.340003387119964 -2.368207730646232 -2.13134111189372
upperneck 20.79526682420383 -2.7592144260745863 -0.3375904773662757
head 9.642249501427571 -1.4220517512470319 -0.14827480408110666
rclavicle -1.2239467356083848E-15 1.0250271317488879E-16
rhumerus -35.743547850806124 -24.275366217460046 -77.34779664809945
rradius 18.665463652254843
rwrist 7.315856307144133
rhand -17.975650446558276 25.179207452250687
rfingers 7.125020000000023
rthumb 8.29016569724536 -4.639241330351361
lclavicle -2.347441032020311E-15 -5.739995736679848E-16
lhumerus -27.110241925487145 -3.174556371489355 80.69198744077862
lradius 31.593846397672614
lwrist 7.475154290914464
lhand -27.80881949784487 25.884300140431733
lfingers 7.1250199999999975
lthumb -1.2235907810272906 55.88855281818887
rfemur -27.78400559493839 6.209043711866622 21.578420918049552
rtibia 21.898651015127495
rfoot -9.11383094861704 -9.67512103930015
rtoes 0.7741153555998808
lfemur 14.200205883043449 -3.6070656332556004 -27.67555070011657
ltibia 22.784895666570762
lfoot -9.78993560834483 -6.618294516609211
ltoes -7.370209126123463
341
root 0 0 0 -1.8216872640337172 0.8251292788918163 -0.9136752223877473
lowerback 9.494681095951112 -1.6701786121605013 -1.6591634206026427
upperback -0.0980085518554499 -2.261971789887342 2.425589094451102
thorax -5.2929869133124985 -1.0609164315422324 3.7934728201991
lowerneck -18.42004272337899 -2.153341322766979 -1.8910896376790935
upperneck 22.069629630450475 -2.539538920051927 -0.542182537962945
head 10.088791313521972 -1.2960941747718489 -0.23594712221231878
rclavicle -1.3374761172971276E-15 -6.996059898658604E-16
rhumerus -36.01008623772401 -24.63322241083315 -77.2398579391438
rradius 18.151676531506084
rwrist 7.960701179564039
rhand -17.887590375685505 25.260934245301705
rfingers 7.125020000000022
rthumb 8.374832463455661 -4.547384774069755
lclavicle -3.100858337914001E-15 -1.4181955215156567E-15
lhumerus -28.10382322530902 -2.7399212697315694 81.11753586931434
lradius 31.099849375416575
lwrist 7.367356257158297
lhand -27.71622800661116 25.761732052558955
lfingers 7.125020000000003
lthumb -1.129247658933613 55.75817798212735
rfemur -20.242585344923107 6.637992098487993 23.58321122278355
rtibia 20.575741029185735
rfoot -9.109367462054296 -6.299072230583568
rtoes 5.940359903422135
lfemur 14.927591761783386 -2.9970836295043033 -25.278950888943378
ltibia 38.179306227857765
lfoot 0.8798313341500421 -13.887639058740529
ltoes -8.30045913167628
342
root 0 0 0 -2.519676370149663 0.1557948652822163 -1.9975053992020881
lowerback 9.77473802055713 -1.5225482871752862 -0.5743825378785898
upperback 0.046540054755531746 -1.9357843269142851 2.553287142850683
thorax -5.365949779356257 -0.9213189681220975 3.2812533892811784
lowerneck -17.579153947761764 -2.1348505013728265 -1.6730638417587804
upperneck 21.05130635110115 -2.47853425665878 -0.6317683314263485
head 9.555243886046698 -1.2936207839497071 -0.27468086609909864
rclavicle -1.6367547573203771E-15 -1.6447302268796242E-15
rhumerus -36.00345957716665 -24.54178592852992 -77.34030639841936
rradius 17.99779110787231
rwrist 8.308008094078872
rhand -17.84037724158863 25.392250158618786
rfingers 7.125020000000021
rthumb 8.421126777015203 -4.4059327153631855
lclavicle -4.057765494501094E-15 -2.6569124389138663E-15
lhumerus -29.162632077448514 -2.295820546602814 81.99971851527486
lradius 30.32111978455029
lwrist 7.0974306155178155
lhand -27.578504215956787 25.44329512019175
lfingers 7.125020000000011
lthumb -0.9889951705710986 55.43169481600681
rfemur -19.90782709551711 6.629359977403626 24.828353414991643
rtibia 23.264593804210836
rfoot -9.372258463090969 -5.529836296518088
rtoes 8.353542325373496
lfemur 2.9793823551589176 -1.1276564842761565 -20.39910168756355
ltibia 55.08256006470708
lfoot 15.718535900357164 -20.95852556138574
ltoes 1.5908434917421523
343
root 0 0 0 -3.37783703927625 -0.7360437926136842 -4.049241654175583
lowerback 11.309837487107126 -1.2117723357991523 1.2527025808106216
upperback 0.7729313402981376 -1.277916519032315 2.9629985832327814
thorax -5.513607973547837 -0.6322773112876148 2.5926038430679164
lowerneck -16.559670988573455 -2.480115941592474 -1.6831093467057596
upperneck 17.731717180339437 -2.8407481947114115 -0.4043864884709425
head 8.2189530584791 -1.5192840793037683 -0.21278514378304747
rclavicle -1.1633178339774274E-15 -3.885206162763607E-15
rhumerus -35.38725114464014 -23.936963054278777 -77.654176510195
rradius 18.24143136086675
rwrist 8.357288849664428
rhand -17.81407014631441 25.752546725842087
rfingers 7.1250200000000214
rthumb 8.445222864942881 -4.043966197546645
lclavicle -3.686581814659785E-15 -5.227439553655732E-15
lhumerus -29.623929932000085 -2.074525823536476 82.94770737004177
lradius 29.60011264361022
lwrist 6.759402543865976
lhand -27.556963569099096 24.999680998150918
lfingers 7.125020000000017
lthumb -0.9652009909794783 54.98675092415537
rfemur -19.012618627227823 6.82470934371087 26.089598132058256
rtibia 25.136261949325686
rfoot -9.464280068620386 -5.625455333315397
rtoes 9.706652713346843
lfemur -7.8711728363140026 0.9973257418546466 -14.646368516277354
ltibia 63.254276479826885
lfoot 14.24105502005052 -18.853348222520495
ltoes -6.1250925728523775
